<svg width="352" height="64" viewBox="0 0 352 64" fill="none" xmlns="http://www.w3.org/2000/svg">
<path d="M110.275 16.32V48H105.523L92.2746 26.784L88.9146 20.832H88.8666L89.0586 25.632V48H85.4106V16.32H90.1626L103.363 37.44L106.771 43.536H106.819L106.627 38.688V16.32H110.275ZM133.675 32.496C133.675 30.704 133.195 29.328 132.235 28.368C131.275 27.376 129.915 26.88 128.155 26.88C126.491 26.88 125.083 27.248 123.931 27.984C122.779 28.688 121.931 29.84 121.387 31.44L118.267 29.52C118.907 27.728 120.091 26.288 121.819 25.2C123.547 24.08 125.691 23.52 128.251 23.52C129.979 23.52 131.547 23.824 132.955 24.432C134.363 25.008 135.467 25.904 136.267 27.12C137.099 28.304 137.515 29.84 137.515 31.728V43.344C137.515 44.496 138.123 45.072 139.339 45.072C139.947 45.072 140.539 44.992 141.115 44.832L140.923 47.856C140.283 48.176 139.451 48.336 138.427 48.336C137.243 48.336 136.219 48.048 135.355 47.472C134.523 46.896 133.979 46.016 133.723 44.832C132.891 46.08 131.755 47.008 130.315 47.616C128.875 48.192 127.451 48.48 126.043 48.48C124.635 48.48 123.323 48.24 122.107 47.76C120.891 47.28 119.915 46.56 119.179 45.6C118.475 44.608 118.123 43.392 118.123 41.952C118.123 40.16 118.715 38.688 119.899 37.536C121.115 36.352 122.795 35.552 124.939 35.136L133.675 33.408V32.496ZM122.059 41.76C122.059 42.752 122.443 43.568 123.211 44.208C124.011 44.816 125.131 45.12 126.571 45.12C127.819 45.12 128.971 44.912 130.027 44.496C131.115 44.048 131.995 43.392 132.667 42.528C133.339 41.632 133.675 40.496 133.675 39.12V36.576L126.715 38.016C125.147 38.336 123.979 38.784 123.211 39.36C122.443 39.936 122.059 40.736 122.059 41.76ZM160.309 24V27.312H151.573V41.376C151.573 42.56 151.909 43.44 152.581 44.016C153.253 44.592 154.117 44.88 155.173 44.88C156.101 44.88 156.901 44.72 157.573 44.4C158.245 44.08 158.853 43.648 159.397 43.104L160.741 46.32C160.005 46.992 159.125 47.52 158.101 47.904C157.109 48.288 155.957 48.48 154.645 48.48C153.429 48.48 152.293 48.272 151.237 47.856C150.181 47.408 149.333 46.72 148.693 45.792C148.085 44.832 147.765 43.584 147.733 42.048V27.312H142.933V24H147.733V18.24L151.573 17.184V24H160.309ZM177.325 24V27.312H168.589V41.376C168.589 42.56 168.925 43.44 169.597 44.016C170.269 44.592 171.133 44.88 172.189 44.88C173.117 44.88 173.917 44.72 174.589 44.4C175.261 44.08 175.869 43.648 176.413 43.104L177.757 46.32C177.021 46.992 176.141 47.52 175.117 47.904C174.125 48.288 172.973 48.48 171.661 48.48C170.445 48.48 169.309 48.272 168.253 47.856C167.197 47.408 166.349 46.72 165.709 45.792C165.101 44.832 164.781 43.584 164.749 42.048V27.312H159.949V24H164.749V18.24L168.589 17.184V24H177.325ZM197.05 32.496C197.05 30.704 196.57 29.328 195.61 28.368C194.65 27.376 193.29 26.88 191.53 26.88C189.866 26.88 188.458 27.248 187.306 27.984C186.154 28.688 185.306 29.84 184.762 31.44L181.642 29.52C182.282 27.728 183.466 26.288 185.194 25.2C186.922 24.08 189.066 23.52 191.626 23.52C193.354 23.52 194.922 23.824 196.33 24.432C197.738 25.008 198.842 25.904 199.642 27.12C200.474 28.304 200.89 29.84 200.89 31.728V43.344C200.89 44.496 201.498 45.072 202.714 45.072C203.322 45.072 203.914 44.992 204.49 44.832L204.298 47.856C203.658 48.176 202.826 48.336 201.802 48.336C200.618 48.336 199.594 48.048 198.73 47.472C197.898 46.896 197.354 46.016 197.098 44.832C196.266 46.08 195.13 47.008 193.69 47.616C192.25 48.192 190.826 48.48 189.418 48.48C188.01 48.48 186.698 48.24 185.482 47.76C184.266 47.28 183.29 46.56 182.554 45.6C181.85 44.608 181.498 43.392 181.498 41.952C181.498 40.16 182.09 38.688 183.274 37.536C184.49 36.352 186.17 35.552 188.314 35.136L197.05 33.408V32.496ZM185.434 41.76C185.434 42.752 185.818 43.568 186.586 44.208C187.386 44.816 188.506 45.12 189.946 45.12C191.194 45.12 192.346 44.912 193.402 44.496C194.49 44.048 195.37 43.392 196.042 42.528C196.714 41.632 197.05 40.496 197.05 39.12V36.576L190.09 38.016C188.522 38.336 187.354 38.784 186.586 39.36C185.818 39.936 185.434 40.736 185.434 41.76ZM213.87 12.96V41.904C213.87 43.12 214.094 43.968 214.542 44.448C214.99 44.896 215.71 45.12 216.702 45.12C217.342 45.12 217.87 45.072 218.286 44.976C218.702 44.88 219.262 44.704 219.966 44.448L219.342 47.808C218.286 48.256 217.102 48.48 215.79 48.48C211.95 48.48 210.03 46.336 210.03 42.048V12.96H213.87ZM226.814 19.392C225.95 19.392 225.246 19.136 224.702 18.624C224.19 18.08 223.934 17.376 223.934 16.512C223.934 15.648 224.19 14.96 224.702 14.448C225.246 13.904 225.95 13.632 226.814 13.632C227.678 13.632 228.366 13.904 228.878 14.448C229.422 14.96 229.694 15.648 229.694 16.512C229.694 17.376 229.422 18.08 228.878 18.624C228.366 19.136 227.678 19.392 226.814 19.392ZM228.734 24V48H224.894V24H228.734ZM247.676 48.48C245.404 48.48 243.372 47.984 241.58 46.992C239.82 46 238.444 44.576 237.452 42.72C236.46 40.832 235.964 38.592 235.964 36C235.964 33.408 236.46 31.184 237.452 29.328C238.444 27.44 239.804 26 241.532 25.008C243.26 24.016 245.228 23.52 247.436 23.52C249.676 23.52 251.58 24 253.148 24.96C254.748 25.92 255.964 27.232 256.796 28.896C257.628 30.528 258.044 32.368 258.044 34.416C258.044 34.96 258.028 35.456 257.996 35.904C257.964 36.352 257.916 36.752 257.852 37.104H239.756C239.948 39.632 240.732 41.6 242.108 43.008C243.484 44.416 245.308 45.12 247.58 45.12C249.34 45.12 250.764 44.784 251.852 44.112C252.972 43.44 253.868 42.528 254.54 41.376L257.564 43.152C256.668 44.784 255.372 46.08 253.676 47.04C252.012 48 250.012 48.48 247.676 48.48ZM247.34 26.88C245.324 26.88 243.66 27.488 242.348 28.704C241.068 29.888 240.252 31.552 239.9 33.696H254.204C254.108 31.52 253.436 29.84 252.188 28.656C250.94 27.472 249.324 26.88 247.34 26.88ZM292.65 16.32C297.61 16.32 301.498 17.696 304.314 20.448C307.162 23.168 308.586 27.072 308.586 32.16C308.586 37.248 307.162 41.168 304.314 43.92C301.498 46.64 297.61 48 292.65 48H282.426V16.32H292.65ZM293.034 44.4C296.65 44.4 299.466 43.328 301.482 41.184C303.53 39.008 304.554 36 304.554 32.16C304.554 28.32 303.53 25.328 301.482 23.184C299.466 21.008 296.65 19.92 293.034 19.92H286.266V44.4H293.034ZM330.316 32.496C330.316 30.704 329.836 29.328 328.876 28.368C327.916 27.376 326.556 26.88 324.796 26.88C323.132 26.88 321.724 27.248 320.572 27.984C319.42 28.688 318.572 29.84 318.028 31.44L314.908 29.52C315.548 27.728 316.732 26.288 318.46 25.2C320.188 24.08 322.332 23.52 324.892 23.52C326.62 23.52 328.188 23.824 329.596 24.432C331.004 25.008 332.108 25.904 332.908 27.12C333.74 28.304 334.156 29.84 334.156 31.728V43.344C334.156 44.496 334.764 45.072 335.98 45.072C336.588 45.072 337.18 44.992 337.756 44.832L337.564 47.856C336.924 48.176 336.092 48.336 335.068 48.336C333.884 48.336 332.86 48.048 331.996 47.472C331.164 46.896 330.62 46.016 330.364 44.832C329.532 46.08 328.396 47.008 326.956 47.616C325.516 48.192 324.092 48.48 322.684 48.48C321.276 48.48 319.964 48.24 318.748 47.76C317.532 47.28 316.556 46.56 315.82 45.6C315.116 44.608 314.764 43.392 314.764 41.952C314.764 40.16 315.356 38.688 316.54 37.536C317.756 36.352 319.436 35.552 321.58 35.136L330.316 33.408V32.496ZM318.7 41.76C318.7 42.752 319.084 43.568 319.852 44.208C320.652 44.816 321.772 45.12 323.212 45.12C324.46 45.12 325.612 44.912 326.668 44.496C327.756 44.048 328.636 43.392 329.308 42.528C329.98 41.632 330.316 40.496 330.316 39.12V36.576L323.356 38.016C321.788 38.336 320.62 38.784 319.852 39.36C319.084 39.936 318.7 40.736 318.7 41.76ZM345.407 19.392C344.543 19.392 343.839 19.136 343.295 18.624C342.783 18.08 342.527 17.376 342.527 16.512C342.527 15.648 342.783 14.96 343.295 14.448C343.839 13.904 344.543 13.632 345.407 13.632C346.271 13.632 346.959 13.904 347.471 14.448C348.015 14.96 348.287 15.648 348.287 16.512C348.287 17.376 348.015 18.08 347.471 18.624C346.959 19.136 346.271 19.392 345.407 19.392ZM347.327 24V48H343.487V24H347.327Z" fill="black"/>
<path d="M31.9438 57.0664C31.998 57.096 32.0818 57.1411 32.1656 57.1862C32.2108 57.1333 32.2443 57.0934 32.2778 57.0535C32.5809 57.1102 32.8801 57.1218 33.1845 57.0818C33.2799 57.0689 33.378 57.087 33.4747 57.0883C33.5495 57.0895 33.6333 57.1114 33.6978 57.0857C33.9261 56.9955 34.1698 57.0226 34.4046 56.9788C34.7076 56.9234 34.7102 56.9375 35.1255 57.0625C35.1513 57.0251 35.1835 56.9852 35.208 56.9401C35.2403 56.8834 35.2944 56.8602 35.3447 56.8821C35.5537 56.9697 35.7497 56.9053 35.9522 56.859C36.2604 56.7868 36.5713 56.7366 36.8898 56.752C36.9543 56.7546 37.0252 56.7585 37.0833 56.7353C37.4444 56.6 37.8081 56.6103 38.1769 56.6979C38.2079 56.7057 38.2414 56.7031 38.2878 56.7057C38.3485 56.5446 38.4877 56.4802 38.6438 56.5008C38.8166 56.524 38.9636 56.4661 39.121 56.4223C39.3609 56.3566 39.5917 56.2483 39.851 56.2625C39.9116 56.2651 39.9928 56.2419 40.0328 56.1994C40.1373 56.086 40.2637 56.0976 40.3965 56.0976C40.568 56.0976 40.7408 56.0834 40.9524 56.0744C40.9665 56.0551 40.9949 55.9971 41.0413 55.9572C41.0878 55.9173 41.1587 55.8632 41.2039 55.8748C41.3135 55.9005 41.3934 55.8464 41.4863 55.8219C41.6114 55.7897 41.7417 55.7678 41.8706 55.755C42.0267 55.7395 42.1724 55.715 42.2756 55.5772C42.2988 55.5463 42.3452 55.5257 42.3839 55.5153C42.6909 55.4419 42.9927 55.3556 43.2919 55.2538C43.4337 55.2062 43.5988 55.2242 43.7394 55.1753C43.8684 55.1302 43.9741 55.0194 44.1018 54.9653C44.303 54.8815 44.5119 54.8261 44.7325 54.8004C44.9801 54.7708 45.2251 54.7128 45.456 54.6059C45.6146 54.5324 45.7758 54.4667 45.9383 54.4023C46.0286 54.3663 46.1228 54.3418 46.2156 54.3134C46.2569 54.3006 46.3072 54.3018 46.3394 54.2774C46.6051 54.0777 46.9043 53.9605 47.2319 53.9154C47.2422 53.9141 47.2551 53.9128 47.2641 53.9077C47.5646 53.6925 47.9374 53.6011 48.2172 53.3486C48.3978 53.185 48.4042 53.1914 48.6519 53.1669C48.8569 52.9312 49.0865 52.7186 49.3767 52.5834C49.4257 52.5602 49.4734 52.5241 49.525 52.519C49.752 52.4983 49.8951 52.3528 50.0331 52.1969C50.0615 52.1647 50.1002 52.1106 50.126 52.1145C50.2924 52.1415 50.353 52.0269 50.4342 51.9212C50.4703 51.8736 50.5451 51.8555 50.6019 51.822C50.687 51.7731 50.7708 51.7241 50.816 51.6275C50.8327 51.5902 50.8689 51.5567 50.9037 51.5348C51.1204 51.4008 51.2751 51.2063 51.435 51.0156C51.4815 50.9602 51.5511 50.919 51.6169 50.8855C51.898 50.7425 52.1779 50.5969 52.4062 50.3741C52.53 50.2517 52.6409 50.1139 52.775 50.0044C52.9079 49.8974 53.0884 49.8601 53.2187 49.7403C53.2664 49.6965 53.3283 49.6656 53.3709 49.6179C53.8365 49.0846 54.3627 48.6079 54.7986 48.0489C54.8721 47.9548 54.934 47.8505 55.0062 47.7551C55.2642 47.4176 55.5247 47.0814 55.7839 46.7452C55.9232 46.5635 56.0651 46.3832 56.2043 46.2028C56.403 45.9452 56.6003 45.6863 56.7963 45.4273C56.835 45.3758 56.866 45.3178 56.8995 45.2624C57.053 45.0125 57.2284 44.7768 57.3883 44.532C57.6127 44.1868 57.8771 43.8647 58.0473 43.4834C58.1131 43.3353 58.2098 43.2 58.2937 43.0583C58.3594 42.9462 58.4394 42.8458 58.4845 42.7182C58.5194 42.6203 58.6096 42.543 58.6625 42.449C58.9759 41.8873 59.2958 41.3282 59.5356 40.7292C59.6092 40.5476 59.6943 40.3698 59.7626 40.1856C59.8968 39.8288 60.0231 39.468 60.1495 39.1086C60.174 39.0378 60.1895 38.9618 60.2024 38.8871C60.2553 38.5766 60.3004 38.2636 60.3585 37.9544C60.3804 37.8385 60.4436 37.729 60.4655 37.613C60.5352 37.2497 60.6009 36.8865 60.6577 36.5206C60.7505 35.9203 60.8331 35.3187 60.9246 34.7184C60.962 34.4711 61.0098 34.2276 61.024 33.9764C61.0317 33.8244 61.0497 33.6737 61.0278 33.5216C61.0214 33.4791 61.0214 33.4341 61.0227 33.3903C61.033 32.9123 61.0433 32.4331 61.0549 31.9552C61.0549 31.9333 61.0652 31.9088 61.0575 31.8908C60.9479 31.6048 61.0394 31.3072 61.0046 31.0174C60.9891 30.8885 60.9737 30.7584 60.9569 30.6296C60.9491 30.5652 60.9208 30.4956 60.935 30.4351C61.0123 30.1182 60.9105 29.8064 60.9182 29.4921C60.9234 29.3092 60.8756 29.125 60.8524 28.942C60.7995 28.5208 60.7712 28.0957 60.6628 27.6822C60.5416 27.2184 60.4165 26.7572 60.294 26.2935C60.2772 26.2304 60.2592 26.1672 60.245 26.1041C60.0889 25.4123 59.88 24.7347 59.6582 24.0623C59.5227 23.6501 59.319 23.2597 59.1462 22.8591C59.1036 22.7599 59.0623 22.6581 59.0159 22.5602C58.9604 22.4417 58.8998 22.3258 58.8405 22.2098C58.816 22.1622 58.7825 22.1171 58.7592 22.0681C58.6187 21.7731 58.4807 21.4781 58.3414 21.1831C58.3182 21.1342 58.295 21.0814 58.2588 21.0414C58.1002 20.8675 58.037 20.6447 57.9313 20.4437C57.7791 20.1551 57.6127 19.8743 57.445 19.5935C57.2503 19.2663 57.0659 18.9288 56.8427 18.6209C56.6648 18.3761 56.5551 18.0785 56.3049 17.8866C56.1966 17.6032 55.9503 17.4215 55.7865 17.1794C55.535 16.8096 55.2642 16.4541 54.9572 16.1269C54.8386 16.0006 54.7418 15.8538 54.6219 15.7301C54.4774 15.582 54.3111 15.4596 54.1989 15.2792C54.1628 15.2213 54.0815 15.1865 54.0157 15.1504C53.8958 15.086 53.8094 15.0061 53.772 14.8644C53.7294 14.7021 53.6108 14.5862 53.4805 14.4805C53.1955 14.2487 52.9246 14 52.6499 13.7553C52.4758 13.5994 52.303 13.4435 52.1431 13.2748C51.947 13.231 51.84 13.0828 51.7368 12.9295C51.7201 12.9051 51.6827 12.8948 51.6594 12.8729C51.5279 12.7479 51.2996 12.7556 51.2197 12.5572C51.0688 12.4735 50.9192 12.3872 50.767 12.306C50.7193 12.2803 50.6677 12.2609 50.6174 12.2442C50.4394 12.1875 50.2704 12.1231 50.1608 11.9556C50.1337 11.9144 50.0783 11.8719 50.0318 11.8655C49.9003 11.8474 49.8203 11.7624 49.7365 11.6761C49.5302 11.4674 49.1394 11.2574 48.8647 11.2162C48.7641 11.2007 48.6777 11.1814 48.6106 11.0912C48.5745 11.0423 48.4958 11.0256 48.452 10.9792C48.3333 10.8516 48.1837 10.7859 48.0199 10.7628C47.8523 10.7396 47.7143 10.6571 47.5711 10.5811C47.4847 10.536 47.3596 10.5128 47.3209 10.442C47.2203 10.2565 47.032 10.1985 46.8798 10.0929C46.7199 9.9821 46.5535 9.86873 46.373 9.80175C46.017 9.67035 45.683 9.48227 45.3128 9.38952C45.3025 9.38694 45.2909 9.38565 45.2806 9.38179C44.7608 9.1396 44.1908 9.07519 43.6465 8.92061C43.0494 8.75056 42.4407 8.62303 41.8371 8.47489C41.6888 8.43882 41.5418 8.39759 41.3947 8.35379C41.3689 8.34606 41.3496 8.31515 41.3083 8.2765C41.77 8.19534 42.2124 8.17215 42.6573 8.17988C43.337 8.19148 44.0064 8.29969 44.677 8.39373C44.8176 8.41305 44.9595 8.41691 45.1 8.43109C45.2084 8.44139 45.3193 8.44912 45.425 8.47231C45.8506 8.56892 46.2762 8.66812 46.7006 8.77117C47.0397 8.85362 47.3802 8.9322 47.7155 9.02753C48.0818 9.13059 48.4404 9.26456 48.8092 9.3586C49.1819 9.45264 49.5185 9.6317 49.8758 9.76181C49.9545 9.79015 50.037 9.80948 50.166 9.84555C50.1157 9.76568 50.1015 9.71415 50.0705 9.69998C49.9145 9.62913 49.8384 9.44878 49.6488 9.41657C49.5753 9.40369 49.5121 9.31351 49.4489 9.25297C49.1652 8.97987 48.8311 8.77117 48.5152 8.54187C48.3488 8.42078 48.1785 8.30613 48.0083 8.19019C47.8742 8.10001 47.7375 8.01242 47.5866 7.91322C47.593 7.85139 47.5995 7.77925 47.6059 7.70969C47.633 7.70067 47.6549 7.68521 47.673 7.68779C47.8677 7.71226 48.0483 7.77281 48.2288 7.85783C48.4739 7.97248 48.7396 8.04333 48.9962 8.13222C49.0375 8.14639 49.0826 8.14897 49.1226 8.167C49.4205 8.30355 49.7313 8.40532 50.0318 8.53028C50.3323 8.65524 50.6199 8.81111 50.9153 8.95152C50.9617 8.97342 51.0159 8.97986 51.0662 8.99661C51.1887 9.03783 51.3203 9.06489 51.4092 9.1731C51.4234 9.18984 51.4389 9.20659 51.4583 9.2169C51.6478 9.32253 51.8555 9.40369 52.0219 9.53766C52.1805 9.66648 52.3262 9.8069 52.499 9.92413C52.7763 10.1122 53.0304 10.3338 53.2935 10.5438C53.4818 10.6932 53.6546 10.8568 53.7939 11.0552C53.83 11.1067 53.8919 11.1402 53.9435 11.1814C54.0634 11.278 54.1666 11.385 54.2556 11.5125C54.3407 11.6349 54.4542 11.7444 54.5716 11.8384C54.7083 11.9479 54.8257 12.0716 54.9366 12.2068C55.1842 12.507 55.4279 12.811 55.6988 13.0918C56.0328 13.4371 56.3604 13.7862 56.7525 14.0683C56.7873 14.0941 56.8286 14.1186 56.8505 14.1546C56.9537 14.3118 57.102 14.4226 57.2374 14.5488C57.4979 14.7949 57.7507 15.0499 58.0009 15.3063C58.0847 15.3913 58.1518 15.4918 58.2292 15.5833C58.3465 15.725 58.4665 15.8654 58.5826 16.0097C58.6445 16.0857 58.7025 16.1642 58.7605 16.2428C58.8573 16.3742 58.9372 16.5224 59.0507 16.637C59.2274 16.8174 59.3796 17.0106 59.5215 17.2193C59.7162 17.5053 59.9509 17.7655 60.1418 18.0553C60.3327 18.3452 60.5777 18.6028 60.6925 18.9403C60.7093 18.9906 60.7351 19.0486 60.775 19.0808C60.9027 19.1812 60.9492 19.3281 61.0175 19.4634C61.1104 19.6476 61.2122 19.8266 61.318 20.0044C61.4741 20.2659 61.603 20.5442 61.7384 20.8173C61.8249 20.9912 61.8945 21.1715 62.0041 21.339C62.1318 21.5361 62.1976 21.7744 62.2904 21.9947C62.3278 22.0849 62.3588 22.1789 62.4052 22.2639C62.6348 22.6981 62.8192 23.1515 62.9624 23.6217C62.9907 23.7158 63.023 23.8098 63.0668 23.8974C63.1945 24.1538 63.2732 24.4191 63.308 24.7064C63.3338 24.9202 63.4022 25.1341 63.4847 25.3338C63.5698 25.5373 63.6175 25.7486 63.6833 25.9547C63.7826 26.2651 63.9013 26.5717 63.989 26.8861C64.0921 27.2532 64.194 27.6229 64.2521 27.9991C64.2908 28.2451 64.3037 28.495 64.3475 28.7424C64.3888 28.9781 64.4365 29.2113 64.4945 29.4444C64.5668 29.7369 64.5848 30.0435 64.6235 30.3449C64.6441 30.5072 64.6519 30.6708 64.6802 30.8319C64.7679 31.3265 64.8389 31.8225 64.8608 32.3236C64.8621 32.3674 64.866 32.4112 64.875 32.4537C64.9795 32.9033 64.9627 33.3632 64.9975 33.8179C65.0078 33.9584 64.982 34.1026 64.9911 34.2431C65.0182 34.6694 64.9666 35.0894 64.9382 35.5132C64.9021 36.0234 64.9356 36.5386 64.9343 37.0514C64.933 37.4533 64.9446 37.8552 64.866 38.2558C64.8105 38.5431 64.8002 38.8381 64.7718 39.1305C64.7589 39.2606 64.7731 39.3985 64.7344 39.5196C64.6183 39.8867 64.5797 40.268 64.5216 40.6429C64.452 41.0976 64.283 41.5279 64.234 41.9839C64.2031 42.2764 64.0586 42.5469 64.0741 42.847C64.0741 42.8573 64.0741 42.8702 64.0702 42.8792C63.9039 43.2026 63.9168 43.5762 63.7568 43.906C63.5814 44.2667 63.4589 44.6531 63.3235 45.0319C63.2461 45.247 63.1803 45.466 63.1262 45.6888C63.0359 46.065 62.8179 46.3819 62.6554 46.7259C62.6283 46.7851 62.5896 46.8392 62.569 46.8998C62.4078 47.3519 62.2014 47.7861 61.9719 48.2047C61.8416 48.4418 61.7255 48.6865 61.5863 48.9197C61.514 49.0408 61.4586 49.1722 61.3928 49.2984C61.3528 49.3757 61.3116 49.4517 61.2703 49.5277C61.229 49.605 61.1787 49.6772 61.1503 49.7583C60.9582 50.2891 60.6396 50.7425 60.3043 51.1869C60.2527 51.2565 60.2024 51.3274 60.1508 51.3969C60.1199 51.4394 60.0967 51.4961 60.0541 51.5245C59.7239 51.7396 59.5266 52.0707 59.3048 52.3798C59.1152 52.6452 58.9411 52.9235 58.7489 53.1875C58.6341 53.346 58.4884 53.4813 58.3685 53.6371C58.1015 53.9837 57.7945 54.2903 57.485 54.5981C57.2374 54.8442 57.0014 55.1018 56.7512 55.344C56.4687 55.6171 56.176 55.8786 55.8871 56.144C55.8471 56.1814 55.7981 56.2097 55.7633 56.2496C55.4383 56.6232 55.0127 56.8783 54.6438 57.2003C54.5948 57.2428 54.5355 57.2738 54.4774 57.3047C54.2866 57.4077 54.115 57.5327 53.9461 57.6731C53.5875 57.9694 53.2342 58.2773 52.8111 58.4885C52.6267 58.58 52.4642 58.714 52.2824 58.8093C52.0812 58.9149 51.8606 58.9871 51.662 59.0966C51.4634 59.2061 51.2983 59.3697 51.0842 59.4599C51.0056 59.4934 50.9411 59.5578 50.8714 59.6093C50.7837 59.6724 50.6948 59.7342 50.6109 59.8012C50.282 60.0627 49.8706 60.171 49.5198 60.3912C49.396 60.4685 49.2477 60.4312 49.1252 60.5213C49.0233 60.5961 48.8892 60.6283 48.7692 60.6785C48.7486 60.6862 48.7241 60.6862 48.7073 60.6991C48.3514 60.9439 47.9245 61.0276 47.5401 61.208C47.3738 61.2866 47.1919 61.3342 47.0165 61.3922C46.8618 61.4437 46.7031 61.4862 46.5497 61.5403C46.2517 61.6434 45.9525 61.7477 45.6572 61.8585C44.9298 62.129 44.1753 62.3107 43.4312 62.5284C43.2338 62.5864 43.0249 62.6044 42.8211 62.6405C42.7786 62.6482 42.7321 62.6469 42.6922 62.6611C42.2679 62.8221 41.819 62.8466 41.3767 62.9097C41.3122 62.9187 41.249 62.9368 41.1845 62.9496C40.9279 62.9999 40.6712 63.0501 40.4146 63.1016C40.1476 63.1545 39.8806 63.2099 39.6137 63.2627C39.357 63.3142 39.1004 63.3683 38.8424 63.4108C38.6928 63.4366 38.5393 63.4417 38.3871 63.4572C38.1486 63.4817 37.9151 63.5203 37.6856 63.6015C37.545 63.6504 37.3838 63.6594 37.2329 63.6556C37.011 63.6504 36.8021 63.7187 36.5867 63.7419C36.2398 63.7792 35.8916 63.7999 35.5447 63.8308C35.4041 63.8437 35.2648 63.8694 35.1242 63.8784C34.7876 63.899 34.4497 63.9248 34.1131 63.9248C33.9944 63.9248 33.8758 63.9119 33.7571 63.9338C33.6926 63.9454 33.6256 63.9493 33.5611 63.9441C33.1252 63.9055 32.6867 63.9686 32.2533 63.9403C31.6433 63.9016 31.0307 63.9184 30.422 63.8771C30.2814 63.8681 30.1382 63.8759 29.9964 63.8759C29.9306 63.8759 29.8648 63.8797 29.8003 63.8746C29.2122 63.8372 28.6241 63.8037 28.0373 63.7573C27.6891 63.729 27.3435 63.6788 26.9965 63.6375C26.9643 63.6337 26.9307 63.626 26.8985 63.626C26.2833 63.635 25.6836 63.5036 25.0762 63.4456C24.4648 63.3876 23.8729 63.2369 23.2757 63.1055C22.9353 63.0308 22.6064 62.9097 22.2569 62.8711C22.1498 62.8595 22.0467 62.8131 21.9435 62.7809C21.6933 62.7036 21.4431 62.6263 21.1929 62.5477C21.1194 62.5245 21.0433 62.5091 20.9762 62.4756C20.5945 62.2849 20.1946 62.1419 19.7897 62.0105C19.5627 61.9371 19.3447 61.8328 19.1268 61.7361C18.7579 61.5725 18.38 61.4257 18.0292 61.2299C17.7326 61.065 17.4257 60.9258 17.1213 60.779C17.0039 60.7223 16.8801 60.6772 16.7576 60.6296C16.7176 60.6141 16.6686 60.6128 16.6338 60.5896C16.1501 60.2727 15.5801 60.1156 15.1081 59.7793C14.7083 59.4946 14.2762 59.2653 13.8596 59.0103C13.7036 58.9149 13.5643 58.79 13.416 58.6792C13.3554 58.6328 13.296 58.5839 13.2303 58.5452C12.9401 58.3713 12.6473 58.2026 12.3571 58.0287C12.2914 57.99 12.2333 57.9398 12.1714 57.8947C12.1005 57.8432 12.036 57.7762 11.9573 57.7452C11.6981 57.6435 11.4918 57.4618 11.2764 57.3008C10.9282 57.0419 10.6109 56.743 10.2872 56.4532C10.2304 56.4029 10.1724 56.3501 10.126 56.2909C10.0034 56.135 9.87318 55.992 9.68102 55.9173C9.63201 55.8979 9.59203 55.8541 9.55205 55.8181C9.3831 55.6661 9.20254 55.5244 9.04906 55.3582C8.86206 55.1572 8.66344 54.9756 8.44806 54.8068C8.32038 54.7063 8.21721 54.5801 8.15401 54.4242C8.12564 54.356 8.09469 54.2722 8.03923 54.2323C7.82385 54.0777 7.6923 53.8458 7.50142 53.6693C7.26928 53.4555 7.0539 53.2236 6.83078 52.9995C6.79209 52.9608 6.75727 52.9119 6.70955 52.8913C6.48514 52.7921 6.3781 52.5834 6.24397 52.4004C6.17948 52.3128 6.11629 52.2304 6.03504 52.1544C5.95121 52.0758 5.8893 51.9637 5.84932 51.8555C5.81063 51.7486 5.75517 51.6662 5.68037 51.5837C5.58622 51.4794 5.50884 51.3596 5.43275 51.241C5.37987 51.1599 5.35665 51.0517 5.28959 50.986C5.00457 50.7052 4.86399 50.3316 4.64474 50.0095C4.53512 49.8472 4.45128 49.6681 4.33521 49.511C4.21269 49.3448 4.09662 49.176 4.00376 48.9918C3.98441 48.9532 3.96636 48.9107 3.93541 48.8823C3.78193 48.7368 3.67747 48.5654 3.60395 48.3645C3.5485 48.2137 3.46338 48.0669 3.36536 47.9394C3.16417 47.6778 3.01069 47.3893 2.87011 47.0956C2.63152 46.5957 2.35165 46.1152 2.18012 45.5832C2.05244 45.1903 1.86544 44.818 1.71712 44.4315C1.6191 44.1778 1.54688 43.915 1.45789 43.6573C1.32634 43.2773 1.2064 42.8947 1.10323 42.5044C0.972966 42.011 0.807884 41.5266 0.69697 41.0268C0.633775 40.7395 0.551234 40.4574 0.476431 40.1727C0.462245 40.1199 0.43645 40.0671 0.43774 40.0143C0.448058 39.7257 0.339723 39.459 0.295873 39.1808C0.221071 38.6977 0.174642 38.2108 0.121764 37.7251C0.09597 37.4868 0.0727551 37.2472 0.0624375 37.0088C0.0495405 36.7151 0.0521202 36.4201 0.0430923 36.1251C0.0340644 35.7992 0.0869422 35.472 0.00698086 35.1474C-0.0110749 35.0765 0.0108497 34.9954 0.0172982 34.9194C0.0495407 34.5393 0.0624376 34.1555 0.123054 33.7806C0.174642 33.4585 0.116605 33.1249 0.227519 32.8106C0.231388 32.8003 0.230099 32.7887 0.230099 32.7784C0.210753 32.4241 0.335854 32.0917 0.383573 31.7491C0.459665 31.2106 0.582187 30.6811 0.658279 30.1427C0.660858 30.1208 0.663438 30.0989 0.671176 30.0783C0.842706 29.6763 0.858182 29.2267 1.05809 28.8325C1.08775 28.7759 1.10194 28.7076 1.11096 28.6445C1.17029 28.2529 1.33408 27.8973 1.48627 27.5366C1.5069 27.4877 1.52109 27.4348 1.53785 27.3833C1.5817 27.2493 1.61911 27.1128 1.6694 26.9814C1.78935 26.6658 1.90929 26.3502 2.04213 26.0397C2.16078 25.7602 2.31683 25.4948 2.42001 25.2101C2.55801 24.8288 2.82497 24.5157 2.96039 24.1331C3.00682 24.0017 3.09581 23.8845 3.16803 23.7621C3.3228 23.5006 3.49046 23.2456 3.6233 22.9699C3.73034 22.747 3.86963 22.5396 4.03987 22.3515C4.17013 22.2085 4.26428 22.0308 4.36488 21.8633C4.52222 21.6018 4.70278 21.3583 4.89623 21.12C5.21866 20.7232 5.514 20.3033 5.83642 19.9065C6.07631 19.6115 6.34199 19.3371 6.59477 19.0524C6.71729 18.9133 6.85657 18.7845 6.9533 18.6286C7.08872 18.4109 7.27315 18.2447 7.455 18.0734C7.74776 17.7964 8.02375 17.5014 8.3307 17.2399C8.58735 17.0209 8.81563 16.7697 9.08002 16.5649C9.34054 16.3626 9.55849 16.1204 9.79967 15.9014C10.0254 15.6966 10.2472 15.4866 10.4677 15.2754C10.8779 14.8825 11.2906 14.4921 11.6942 14.0915C12.1443 13.6445 12.5996 13.2052 13.0807 12.7917C13.3631 12.5495 13.6559 12.3241 13.9822 12.1411C14.1537 12.0445 14.3175 11.935 14.4826 11.8307C14.6115 11.7495 14.7457 11.6813 14.8914 11.649C14.9585 11.7135 14.912 11.7598 14.8811 11.7972C14.6502 12.0729 14.4194 12.3498 14.1808 12.6204C13.7823 13.0699 13.3786 13.5144 12.9775 13.9627C12.9375 14.0078 12.873 14.049 12.9285 14.1456C12.962 14.1301 13.0033 14.1224 13.0317 14.0979C13.7861 13.4809 14.6115 12.9669 15.446 12.4684C15.7903 12.2622 16.1463 12.0651 16.5345 11.9415C16.5654 11.9312 16.599 11.9234 16.626 11.9067C17.1806 11.5743 17.7932 11.3656 18.3813 11.1067C18.7695 10.9367 19.1848 10.8297 19.5885 10.6958C19.702 10.6584 19.8193 10.6288 19.9328 10.5927C20.0489 10.5566 20.165 10.5335 20.3094 10.5824C20.2888 10.6339 20.2836 10.6945 20.2514 10.7177C20.0941 10.8349 19.9277 10.9405 19.7678 11.0539C19.4118 11.3064 19.0546 11.5589 18.7025 11.8165C18.1827 12.1965 17.6772 12.5997 17.1445 12.9604C16.7292 13.2413 16.3384 13.5543 15.9206 13.83C15.7413 13.9485 15.5878 14.1057 15.4202 14.2422C15.2603 14.371 15.0952 14.4908 14.9791 14.6686C14.9275 14.7472 14.8398 14.8065 14.7599 14.8619C14.5986 14.9726 14.431 15.0731 14.2685 15.1813C14.2246 15.211 14.1846 15.2509 14.1511 15.2934C14.0273 15.4441 13.879 15.5704 13.7423 15.7069C13.6327 15.8164 13.5076 15.8976 13.3515 15.9646C13.3463 16.096 13.2586 16.1797 13.1593 16.2737C12.8537 16.5687 12.4887 16.798 12.2204 17.133C11.9264 17.3211 11.7278 17.6225 11.4247 17.8029C11.3151 17.8686 11.2261 17.9729 11.1371 18.0682C10.9101 18.3143 10.6999 18.5771 10.4639 18.8128C10.2188 19.0563 9.95701 19.2843 9.69005 19.5046C9.57139 19.6025 9.47467 19.7146 9.37923 19.8318C9.31861 19.9078 9.25929 19.9851 9.19867 20.0611C9.10323 20.1796 9.0065 20.2968 8.91107 20.4154C8.87624 20.4579 8.85045 20.5081 8.80918 20.5429C8.47644 20.8263 8.22624 21.1767 7.97861 21.5309C7.92187 21.6108 7.88447 21.6997 7.83804 21.7834C7.73228 21.9715 7.60847 22.1557 7.45886 22.3103C7.15965 22.6221 6.97652 22.9969 6.79338 23.3782C6.67086 23.632 6.52254 23.8755 6.36262 24.1087C6.22204 24.3122 6.05438 24.4977 5.97958 24.7373C5.94218 24.8584 5.79773 24.8842 5.76807 25.0065C5.74227 25.1109 5.7268 25.2243 5.67392 25.3144C5.51142 25.5978 5.36955 25.8838 5.28701 26.2046C5.2251 26.4442 5.08582 26.6632 5.00715 26.8989C4.85496 27.3511 4.71052 27.8071 4.61379 28.2748C4.60992 28.2967 4.60863 28.3198 4.5996 28.3379C4.4616 28.6251 4.41646 28.9395 4.33263 29.2422C4.24622 29.5578 4.20108 29.8799 4.13402 30.1993C4.08501 30.4325 4.03342 30.6657 3.9857 30.9001C3.95991 31.0277 3.93927 31.1565 3.91735 31.2853C3.90445 31.36 3.89671 31.436 3.88382 31.5107C3.84255 31.7465 3.80902 31.9848 3.75614 32.218C3.64909 32.6882 3.65554 33.1687 3.62717 33.6466C3.60266 34.0704 3.60266 34.4943 3.58977 34.9181C3.58461 35.092 3.56913 35.2659 3.56139 35.4398C3.53302 36.0607 3.573 36.6816 3.62459 37.2987C3.65812 37.698 3.68649 38.1038 3.81159 38.4916C3.84126 38.583 3.85029 38.6835 3.85802 38.7801C3.86705 38.9128 3.88382 39.0391 3.9612 39.1524C3.99086 39.1962 4.00505 39.2516 4.01666 39.3032C4.07598 39.5685 4.13015 39.8339 4.19077 40.098C4.21011 40.183 4.23204 40.2693 4.27073 40.3466C4.40357 40.612 4.47837 40.8954 4.5622 41.1775C4.5996 41.3012 4.637 41.43 4.70149 41.5408C4.87431 41.8448 4.94266 42.19 5.1129 42.4954C5.30378 42.8367 5.45338 43.2 5.60041 43.562C5.60428 43.5723 5.60428 43.5839 5.60943 43.5929C5.78225 43.8944 5.95507 44.1958 6.13047 44.496C6.1898 44.5977 6.26073 44.6943 6.32135 44.7961C6.53802 45.162 6.76372 45.5227 6.96491 45.8962C7.18287 46.302 7.50529 46.6318 7.74389 47.0221C7.80579 47.1239 7.8806 47.2192 7.93992 47.3223C8.0934 47.5877 8.29846 47.8105 8.49062 48.0463C8.68795 48.2885 8.89172 48.5229 9.09549 48.7574C9.1574 48.8282 9.18448 48.9326 9.25026 48.9983C9.31732 49.0653 9.4205 49.0936 9.49401 49.1567C9.71713 49.3487 9.93251 49.5496 10.1518 49.7454C10.2575 49.8395 10.3658 49.9296 10.4768 50.016C10.6302 50.137 10.7889 50.2517 10.9436 50.3715C11.159 50.539 11.3615 50.7258 11.5898 50.8726C11.8916 51.0671 12.1405 51.3377 12.4758 51.4832C12.5055 51.4961 12.53 51.5206 12.5545 51.5425C12.9272 51.8826 13.3489 52.1531 13.7823 52.4069C13.848 52.4455 13.9022 52.5009 13.9654 52.5434C14.0828 52.622 14.2027 52.6954 14.3226 52.7702C14.3691 52.7985 14.4232 52.8152 14.4658 52.8487C14.6734 53.0136 14.8991 53.1399 15.1597 53.1978C15.3725 53.3705 15.6407 53.4503 15.86 53.5998C16.0612 53.7363 16.2778 53.8342 16.4906 53.9399C16.8621 54.1241 17.2451 54.2838 17.6269 54.4461C18.1079 54.651 18.5928 54.848 19.0778 55.0464C19.1384 55.0709 19.2003 55.0967 19.2648 55.107C19.4918 55.1456 19.7033 55.2281 19.9148 55.3157C20.0953 55.3904 20.2836 55.4445 20.4719 55.4999C20.9001 55.6261 21.3283 55.755 21.7591 55.8709C22.0853 55.9585 22.4129 56.0409 22.7302 56.162C22.8811 56.22 23.0462 56.2483 23.2074 56.2741C23.5182 56.3218 23.8174 56.4467 24.1398 56.4248C24.1721 56.4222 24.2056 56.43 24.2379 56.4364C24.6028 56.4995 24.9665 56.582 25.3341 56.6193C25.7365 56.6606 26.1286 56.7533 26.5258 56.8113C27.141 56.9002 27.7613 56.9401 28.3829 56.9672C28.7982 56.9852 29.2122 57.0135 29.6262 57.0342C29.7126 57.038 29.8055 57.0509 29.8854 57.0264C30.0505 56.9775 30.2117 56.9981 30.3704 57.0342C30.5006 57.0638 30.6244 57.0715 30.7586 57.0483C30.974 57.011 31.188 57.0213 31.4073 57.0754C31.5595 57.1076 31.74 57.0702 31.9438 57.0664ZM4.29652 40.8877C4.29007 40.8683 4.28491 40.849 4.27846 40.8297C4.25912 40.8361 4.24106 40.8426 4.22172 40.849C4.23075 40.8683 4.23591 40.8902 4.2488 40.9044C4.25396 40.9109 4.27975 40.8941 4.29652 40.8877Z" fill="#44413E"/>
<path d="M32.2999 4.48087C32.2225 4.58007 32.158 4.6419 32.1193 4.71662C32.0419 4.86734 31.9233 4.97941 31.7904 5.07603C31.5196 5.27184 31.2333 5.3092 30.9354 5.13142C30.8038 5.05284 30.6645 4.98714 30.5407 4.89826C30.2583 4.69729 30.1474 4.77588 29.9836 4.97168C29.7179 5.28987 29.4728 5.62481 29.2046 5.94042C28.908 6.28824 28.6203 6.6425 28.3108 6.9813C27.9123 7.41801 27.4648 7.79803 27.0353 8.19995C26.8934 8.33264 26.7812 8.49366 26.5942 8.58384C26.4201 8.66757 26.3195 8.85694 26.1286 8.93294C26.0538 8.96257 26.0035 9.05017 25.9391 9.10814C25.6321 9.38511 25.3394 9.68397 25.0105 9.93131C24.701 10.1632 24.4675 10.4646 24.1825 10.7184C23.7749 11.0817 23.3777 11.4566 22.9715 11.8198C22.8902 11.892 22.7729 11.9255 22.6942 12.0002C22.6181 12.0736 22.5781 12.1831 22.5072 12.263C22.4053 12.3763 22.2892 12.4781 22.1783 12.5825C22.1383 12.6198 22.0842 12.6456 22.0545 12.6894C21.8443 12.9947 21.5502 13.2279 21.3426 13.537C21.2162 13.7251 21.0472 13.8848 20.9041 14.0626C20.8022 14.1889 20.7106 14.3228 20.6152 14.4529C20.5958 14.4787 20.5791 14.5083 20.5571 14.5315C20.2799 14.8227 20.0632 15.1666 19.7691 15.4449C19.7085 15.5028 19.6595 15.5814 19.6247 15.6587C19.5254 15.879 19.4029 16.0787 19.2055 16.2268C19.1552 16.2655 19.1114 16.3196 19.0792 16.375C18.9141 16.6558 18.7748 16.9534 18.5852 17.2162C18.3866 17.4906 18.2254 17.7856 18.0409 18.0664C17.8423 18.3704 17.6347 18.6693 17.4464 18.981C17.3974 19.0635 17.2762 19.1214 17.2633 19.2013C17.2323 19.4113 17.0995 19.5646 16.9834 19.7114C16.8067 19.9343 16.6648 20.1778 16.5114 20.4135C16.4456 20.514 16.394 20.6222 16.3308 20.724C16.2315 20.8799 16.1322 21.037 16.0226 21.1852C15.9993 21.2161 15.9323 21.2148 15.8588 21.2354C15.8588 21.1117 15.8485 21.0138 15.8601 20.9198C15.9155 20.4779 15.9955 20.0412 16.1618 19.6226C16.2302 19.4512 16.2766 19.2696 16.336 19.0944C16.3682 19.0016 16.3914 18.8999 16.4482 18.8251C16.5513 18.6912 16.5862 18.5353 16.6365 18.3833C16.7087 18.1682 16.7538 17.9427 16.9305 17.774C16.9976 17.7096 17.035 17.6078 17.0685 17.5163C17.2207 17.0938 17.4799 16.7305 17.703 16.3466C17.7572 16.2539 17.8101 16.1585 17.8591 16.0632C18.0435 15.7064 18.1931 15.3302 18.4485 15.0133C18.4807 14.9734 18.4936 14.9167 18.5156 14.8678C18.629 14.6127 18.8651 14.4607 19.0353 14.2533C19.0585 14.2249 19.1797 14.2198 19.1552 14.1863C19.0753 14.0781 19.1256 14.0021 19.1862 13.9248C19.2455 13.8488 19.3306 13.7908 19.3796 13.7096C19.4596 13.5744 19.5834 13.4829 19.6789 13.3657C19.8298 13.1815 19.9652 12.9831 20.098 12.7834C20.3327 12.4279 20.5997 12.0994 20.877 11.7773C20.9544 11.6871 21.0137 11.5802 21.0898 11.4888C21.4238 11.0881 21.7282 10.6643 22.0803 10.2766C22.2621 10.0769 22.4685 9.89782 22.6245 9.67496C22.7187 9.53969 22.7974 9.40314 22.8051 9.22795C22.8219 8.83762 22.6142 8.60445 22.2647 8.51041C21.9487 8.4241 21.6211 8.38803 21.2949 8.48851C21.2845 8.49109 21.2729 8.49495 21.2626 8.49495C20.9221 8.47692 20.6281 8.62635 20.3237 8.74873C20.0812 8.84535 19.8246 8.90332 19.5796 8.99349C19.4054 9.05661 19.2429 9.15065 19.0727 9.22151C18.6703 9.38897 18.2602 9.53841 17.863 9.71747C17.6179 9.82825 17.3871 9.96738 17.1743 10.1439C16.9692 10.3139 16.7177 10.4337 16.4778 10.5561C16.4017 10.5947 16.2921 10.5703 16.1864 10.5754C16.1864 10.6257 16.1864 10.6849 16.1864 10.7635C16.0006 10.7983 15.8626 10.9876 15.6305 10.9065C15.6421 10.7661 15.6653 10.6463 15.7646 10.5445C15.922 10.3809 16.0509 10.1954 16.1838 10.0099C16.3476 9.78059 16.5475 9.57834 16.7332 9.3645C16.8402 9.24212 16.9434 9.11458 17.0621 9.0038C17.2362 8.84148 17.3845 8.65211 17.6063 8.53875C17.6992 8.49109 17.7701 8.39576 17.8397 8.31331C17.9739 8.15229 18.1312 8.02089 18.3144 7.91912C18.5117 7.80833 18.6948 7.67694 18.9115 7.59449C19.1011 7.52235 19.2636 7.37936 19.4454 7.28274C19.8194 7.08178 20.1896 6.8718 20.5778 6.70047C20.9157 6.55232 21.2742 6.45056 21.625 6.33204C21.9242 6.23027 22.2234 6.1285 22.5265 6.03833C22.7561 5.97005 22.9921 5.92883 23.2346 5.92239C23.3738 5.91852 23.5118 5.87472 23.6498 5.84252C24.0909 5.74075 24.5397 5.77167 24.986 5.75234C25.1601 5.74461 25.3342 5.72916 25.5083 5.71627C25.6708 5.70468 25.8346 5.6802 25.9971 5.68407C26.1622 5.68793 26.2924 5.64027 26.4072 5.52304C26.5594 5.36717 26.7219 5.2216 26.8805 5.07088C27.1488 4.81452 27.4248 4.5659 27.6814 4.29924C27.8465 4.12662 27.9832 3.92823 28.1328 3.74015C28.1999 3.65513 28.2554 3.55722 28.334 3.48251C28.4888 3.33436 28.5868 3.15659 28.6642 2.96078C28.7403 2.76884 28.8267 2.57947 28.9092 2.3901C28.9221 2.36047 28.9454 2.33213 28.9505 2.30121C29.024 1.86451 29.2394 1.45357 29.1775 0.992388C29.1594 0.854549 29.2149 0.734745 29.2949 0.627823C29.3761 0.519613 29.527 0.479678 29.6469 0.545377C29.7321 0.593041 29.8069 0.65874 29.883 0.720575C30.1112 0.906078 30.3318 1.1006 30.5652 1.28095C30.8477 1.49994 31.1714 1.47547 31.4396 1.19593C31.6279 1.00012 31.7878 0.777256 31.9594 0.564701C32.0484 0.453914 32.1348 0.341839 32.2238 0.232341C32.2509 0.198847 32.2792 0.165354 32.3115 0.134437C32.5114 -0.0575072 32.6881 -0.0459134 32.8596 0.182101C32.9305 0.27614 32.977 0.389503 33.0401 0.491272C33.1433 0.65874 33.2517 0.821055 33.3535 0.988523C33.3935 1.05293 33.4322 1.12121 33.4516 1.19335C33.5483 1.5489 33.8256 1.75501 34.1016 1.94438C34.2615 2.05388 34.4807 2.0191 34.6729 1.97401C34.8599 1.93021 35.0069 1.81685 35.1346 1.67772C35.2455 1.55663 35.3539 1.43425 35.4648 1.31315C35.5164 1.25776 35.5705 1.20237 35.6286 1.15213C35.8414 0.971776 36.0245 1.00141 36.1651 1.24617C36.2077 1.31959 36.236 1.40591 36.2502 1.48964C36.3353 1.99591 36.4785 2.48672 36.6113 2.98139C36.699 3.3086 36.7687 3.63838 36.9376 3.93725C36.9634 3.98362 36.9673 4.04159 36.9802 4.09441C36.9905 4.13692 36.9918 4.18587 37.0137 4.22066C37.1478 4.42935 37.2858 4.63675 37.4251 4.84157C37.4999 4.95236 37.607 4.97941 37.7385 4.97168C38.2699 4.93948 38.8012 4.88151 39.3352 4.91371C39.5312 4.92531 39.726 4.94978 39.9207 4.97297C40.2779 5.01548 40.6352 5.06057 40.9924 5.10437C41.0247 5.10824 41.0595 5.10566 41.0905 5.11468C41.5418 5.24994 42.0152 5.26926 42.4704 5.38391C42.7555 5.45605 43.0456 5.50501 43.332 5.5707C43.7382 5.66474 44.1135 5.84638 44.4966 6.00354C44.7674 6.11433 45.0369 6.23027 45.3039 6.35136C45.5322 6.45442 45.7772 6.53815 45.9771 6.68243C46.1938 6.8396 46.3679 7.0573 46.5575 7.25183C46.5678 7.26213 46.5562 7.29176 46.5549 7.31752C46.4453 7.36905 46.3382 7.33041 46.2415 7.28918C45.7643 7.08436 45.2549 7.02123 44.7493 6.93879C44.2786 6.8615 43.8104 6.76101 43.3397 6.68759C42.847 6.61029 42.3505 6.55232 41.8552 6.4892C41.814 6.48405 41.7701 6.50724 41.7276 6.51239C41.6631 6.52012 41.596 6.53558 41.5341 6.52527C41.1923 6.46473 40.857 6.52269 40.5281 6.59612C40.1142 6.68887 39.8214 6.96713 39.588 7.30979C39.5028 7.6151 39.4138 7.92041 39.5622 8.23216C39.6189 8.35067 39.6718 8.46919 39.7298 8.5877C39.9026 8.93939 40.0703 9.29364 40.2509 9.64146C40.4314 9.98928 40.6184 10.3358 40.8157 10.6733C41.0737 11.1152 41.3419 11.5532 41.6141 11.986C41.7998 12.281 41.9842 12.5799 42.2009 12.8517C42.4562 13.1725 42.6329 13.5319 42.8135 13.8913C42.9257 14.1154 43.025 14.346 43.1488 14.5637C43.332 14.8845 43.5215 15.204 43.7292 15.5106C44.0581 15.9975 44.3985 16.478 44.7442 16.9534C44.8783 17.1376 45.0447 17.2986 45.1904 17.4751C45.2381 17.5318 45.2781 17.5975 45.3065 17.6658C45.331 17.725 45.2601 17.801 45.1981 17.7933C45.1556 17.7881 45.1079 17.7843 45.073 17.7637C44.8267 17.6232 44.5739 17.4983 44.3534 17.3115C44.08 17.0783 43.795 16.858 43.4996 16.6532C43.0895 16.3685 42.7632 16.0078 42.4627 15.6162C42.3428 15.4603 42.2164 15.3096 42.0977 15.155C41.9313 14.9386 41.7663 14.7222 41.605 14.5019C41.3471 14.1502 41.0917 13.7985 40.8403 13.443C40.7023 13.2472 40.581 13.0398 40.4404 12.8453C40.3644 12.7409 40.2625 12.6559 40.1722 12.5606C40.127 12.5129 40.0793 12.4678 40.0419 12.415C39.8008 12.0788 39.548 11.749 39.3261 11.3999C39.1688 11.1513 38.9882 10.9194 38.818 10.6811C38.6607 10.4608 38.4801 10.2585 38.3099 10.0473C38.1938 9.90297 38.0855 9.75354 37.9629 9.6157C37.7243 9.34775 37.478 9.08753 37.2343 8.82216C37.1969 8.78222 37.1607 8.741 37.1298 8.69591C36.9944 8.49882 36.8473 8.31203 36.6823 8.13683C36.5275 7.97194 36.4037 7.77613 36.2812 7.58418C36.0593 7.23508 35.7679 6.93235 35.595 6.55104C35.2442 6.10145 35.034 5.5707 34.7542 5.08118C34.7322 5.04382 34.7129 5.00389 34.6897 4.96653C34.5917 4.80808 34.5169 4.79906 34.3853 4.93175C34.2783 5.03996 34.1712 5.14946 34.0655 5.26024C33.8978 5.43673 33.6798 5.51273 33.4503 5.53463C33.1549 5.56426 32.9641 5.3852 32.8145 5.15332C32.7087 4.98843 32.6055 4.82096 32.4933 4.66122C32.4546 4.60583 32.3889 4.56332 32.2999 4.48087ZM42.4756 6.30112C42.4679 6.29468 42.4601 6.28824 42.4511 6.28309C42.4421 6.29855 42.4317 6.314 42.4253 6.33075C42.424 6.33333 42.4408 6.34235 42.4485 6.34879C42.4575 6.33333 42.4666 6.31787 42.4756 6.30112Z" fill="#44413E"/>
<path d="M30.6696 10.6797C30.7547 10.8098 30.7818 10.9206 30.7896 11.0597C30.8115 11.441 30.7444 11.8146 30.738 12.1921C30.7302 12.6687 30.7186 13.1453 30.7728 13.6233C30.8154 13.9904 30.8179 14.3627 30.8566 14.7298C30.8824 14.9785 30.9276 15.2258 30.9804 15.4706C31.054 15.8107 31.1481 16.1456 31.3106 16.4573C31.3764 16.5823 31.4202 16.7188 31.4692 16.8515C31.6034 17.2109 31.793 17.5394 32.0083 17.8576C32.2598 18.2286 32.5319 18.5829 32.8015 18.9397C32.8337 18.9822 32.8595 19.0402 32.9021 19.0647C33.16 19.2141 33.3277 19.4679 33.5714 19.6328C33.832 19.8106 34.0835 20.0025 34.3556 20.1597C34.6948 20.3555 35.0636 20.3761 35.4286 20.2279C35.5898 20.1635 35.7446 20.0785 35.8942 19.9896C36.0619 19.8891 36.205 19.5632 36.1663 19.3996C36.1534 19.3481 36.1405 19.2837 36.1044 19.254C35.9045 19.0943 35.831 18.8444 35.6608 18.6589C35.497 18.4798 35.3951 18.2364 35.2971 18.0083C35.19 17.7597 35.1088 17.5034 34.9772 17.2638C34.8573 17.046 34.7722 16.809 34.6767 16.5784C34.6483 16.5089 34.6187 16.4329 34.6187 16.3594C34.6174 16.0683 34.5026 15.8094 34.3956 15.5504C34.2163 15.115 34.0912 14.668 34.0486 14.1978C34.0357 14.0587 33.9958 13.9208 33.9738 13.7817C33.9519 13.6426 33.9339 13.5022 33.9184 13.3618C33.899 13.1994 33.8668 13.0371 33.8707 12.8761C33.8784 12.5631 33.8152 12.2487 33.8965 11.9383C33.9119 11.879 33.9416 11.8236 33.9777 11.7347C34.0254 11.7888 34.0628 11.8133 34.0757 11.8481C34.1712 12.1122 34.2705 12.375 34.313 12.6558C34.3259 12.7395 34.3607 12.8259 34.4033 12.9006C34.5168 13.1015 34.5864 13.3141 34.6483 13.5357C34.7296 13.8281 34.847 14.1102 34.9579 14.3936C35.0649 14.6667 35.1655 14.9424 35.2545 15.2232C35.3267 15.4512 35.4247 15.6702 35.5112 15.8931C35.5421 15.973 35.5705 16.0541 35.6027 16.1327C35.6182 16.1701 35.635 16.2139 35.6646 16.2383C35.8581 16.3903 35.9548 16.6184 36.1109 16.8C36.1508 16.8464 36.1637 16.9147 36.2024 16.9623C36.3714 17.1736 36.5455 17.3797 36.717 17.5884C36.7725 17.6554 36.8383 17.7198 36.8705 17.7971C36.9711 18.0328 37.1542 18.1887 37.3335 18.36C37.4483 18.4695 37.5837 18.5571 37.6882 18.6782C37.7939 18.7993 37.9152 18.9075 38.0106 19.0363C38.0583 19.102 38.0906 19.1755 38.1486 19.2425C38.2788 19.3945 38.4439 19.4911 38.5948 19.6122C38.6619 19.6663 38.7896 19.683 38.7393 19.8286C38.7302 19.8556 38.7922 19.9213 38.8347 19.9523C38.9469 20.0347 39.0669 20.1068 39.1791 20.188C39.2203 20.2189 39.25 20.2653 39.2861 20.3039C39.437 20.4585 39.5853 20.617 39.762 20.7445C39.9232 20.8605 40.0406 21.0034 40.1192 21.198C40.1889 21.3719 40.2946 21.5329 40.4829 21.6398C40.6687 21.7455 40.8131 21.9271 40.9124 22.1152C41.0001 22.2814 41.1278 22.4102 41.2258 22.5635C41.3187 22.709 41.4347 22.8392 41.5328 22.9809C41.7301 23.2668 41.9119 23.5644 42.0628 23.8787C42.1338 24.0282 42.2137 24.1673 42.3272 24.2897C42.5168 24.4919 42.6213 24.7418 42.7103 25.0008C42.8044 25.2777 42.9037 25.5521 43.0172 25.8214C43.0675 25.9399 43.1565 26.0417 43.2313 26.1486C43.319 26.2748 43.4041 26.3972 43.4131 26.5608C43.417 26.6317 43.4557 26.709 43.4995 26.7669C43.6853 27.0155 43.7549 27.3131 43.8581 27.5965C43.9071 27.7279 43.9471 27.8632 43.9909 27.9972C44.0309 28.1195 44.0941 28.2406 44.1044 28.3656C44.1173 28.5344 44.165 28.6838 44.2385 28.8319C44.2811 28.9195 44.303 29.0161 44.3456 29.105C44.4294 29.2802 44.4617 29.4773 44.5932 29.6332C44.6525 29.7041 44.6732 29.8097 44.7041 29.9012C44.7699 30.0944 44.8241 30.2928 44.8976 30.4834C44.9943 30.732 45.0227 30.9974 45.0149 31.2512C45.0059 31.5269 45.0549 31.7923 45.0743 32.0615C45.0885 32.2457 45.1207 32.4299 45.1284 32.6141C45.1336 32.7314 45.1375 32.8537 45.0472 32.9555C44.9685 33.0457 44.8782 33.0689 44.7944 32.9929C44.7144 32.9194 44.6332 32.8421 44.579 32.7507C44.4668 32.5639 44.3778 32.3642 44.2669 32.1761C44.2179 32.095 44.2592 31.9919 44.2179 31.9391C44.1779 31.8876 44.0967 31.8579 44.0606 31.7871C43.8684 31.4122 43.6595 31.0464 43.5382 30.6367C43.3886 30.1266 43.1991 29.6268 43.0585 29.1141C42.9888 28.8603 42.9192 28.6142 42.7902 28.3836C42.7489 28.3089 42.7038 28.2394 42.6574 28.1685C42.5581 28.0178 42.4975 27.8426 42.4201 27.6777C42.3607 27.5502 42.313 27.4136 42.2356 27.2977C42.0125 26.9627 41.783 26.6317 41.5457 26.307C41.3148 25.9914 41.0556 25.7016 40.7847 25.4182C40.5487 25.1708 40.2766 24.975 40.0187 24.7573C39.7775 24.5551 39.5092 24.385 39.2474 24.2072C39.0591 24.0797 38.8579 23.9702 38.6722 23.8375C38.3124 23.5799 37.8906 23.4536 37.4947 23.2733C37.2097 23.1432 36.9195 23.0195 36.628 22.9126C36.334 22.8057 36.058 22.633 35.7343 22.6073C35.6724 22.6021 35.6053 22.5712 35.5563 22.5338C35.19 22.2556 34.7747 22.0688 34.3595 21.8807C34.2795 21.8447 34.2073 21.8073 34.1557 21.7274C34.077 21.605 33.9596 21.5277 33.8229 21.4736C33.6888 21.4208 33.574 21.3384 33.4941 21.2147C33.476 21.1877 33.4567 21.1593 33.4309 21.14C33.2039 20.9661 33.0143 20.7613 32.8479 20.5294C32.7667 20.416 32.6364 20.4237 32.5165 20.456C32.3811 20.492 32.3308 20.6157 32.3191 20.7329C32.3037 20.8836 32.3243 21.0524 32.4417 21.1567C32.5745 21.2753 32.6235 21.426 32.6661 21.5806C32.7099 21.7403 32.7641 21.891 32.8428 22.0366C32.8995 22.1409 32.9537 22.253 32.9782 22.369C33.0104 22.5248 33.0788 22.6511 33.182 22.7709C33.2361 22.8327 33.2684 22.919 33.2942 23.0002C33.3496 23.1651 33.4115 23.3222 33.5134 23.4678C33.6566 23.6713 33.7507 23.9006 33.8552 24.1261C33.9493 24.3258 34.0216 24.5512 34.2098 24.698C34.2408 24.7225 34.2705 24.7625 34.2808 24.7998C34.3246 24.9621 34.4239 25.0871 34.5271 25.2159C34.6264 25.3422 34.7296 25.4697 34.7799 25.6307C34.8044 25.7093 34.8702 25.7776 34.9231 25.8458C35.0701 26.0339 35.2364 26.2104 35.2377 26.4732C35.2377 26.5222 35.27 26.5801 35.3035 26.6188C35.5241 26.879 35.6401 27.2011 35.8271 27.4806C35.8749 27.5527 35.92 27.6275 35.9742 27.6944C36.1315 27.8902 36.2863 28.0873 36.4036 28.3102C36.4139 28.3295 36.423 28.3514 36.4384 28.3656C36.6009 28.5305 36.7183 28.7211 36.7712 28.9479C36.9763 29.1604 37.0485 29.4619 37.2613 29.6693C37.3051 29.7118 37.3309 29.7788 37.3516 29.8393C37.4057 29.99 37.3206 30.0982 37.1607 30.0879C37.1181 30.0854 37.0717 30.0763 37.0356 30.0557C36.7609 29.9024 36.4655 29.7788 36.2347 29.5572C36.156 29.4825 36.0748 29.4052 36.018 29.3137C35.8284 29.0046 35.5898 28.7392 35.3216 28.4983C35.2971 28.4764 35.2751 28.4506 35.2468 28.4352C34.9218 28.2484 34.6664 27.983 34.4072 27.7176C34.3453 27.6532 34.2963 27.5875 34.2498 27.5154C34.1789 27.4059 34.1067 27.2977 34.0293 27.1933C33.8294 26.9228 33.6295 26.651 33.4218 26.3843C33.2619 26.1782 33.0878 25.9811 32.9253 25.7763C32.7551 25.5624 32.6145 25.3306 32.5732 25.0536C32.5616 24.9712 32.5216 24.9158 32.4713 24.8565C32.2353 24.5795 32.118 24.2343 31.9361 23.9277C31.8961 23.6829 31.7259 23.5077 31.6137 23.3016C31.4847 23.0659 31.4125 22.7992 31.3196 22.5442C31.2577 22.3728 31.1997 22.2066 31.0991 22.0469C30.9804 21.8575 30.9185 21.6295 30.8515 21.4131C30.7302 21.0189 30.5897 20.6324 30.4039 20.2627C30.3898 20.2331 30.3549 20.2009 30.3614 20.1764C30.4349 19.8505 30.1963 19.6032 30.1434 19.3107C30.1344 19.2579 30.1151 19.2051 30.1163 19.1523C30.1267 18.8302 30.0351 18.5249 29.9448 18.2235C29.9035 18.0856 29.8894 17.9491 29.8752 17.8112C29.8584 17.6605 29.8687 17.5047 29.8313 17.3604C29.7333 16.9881 29.692 16.6158 29.7372 16.2319C29.7501 16.116 29.7036 15.9936 29.7101 15.8763C29.723 15.638 29.7475 15.3997 29.7759 15.164C29.7978 14.981 29.7823 14.793 29.8636 14.6191C29.8752 14.5933 29.8777 14.5546 29.8674 14.5302C29.8107 14.4001 29.8352 14.2725 29.879 14.1463C29.9371 13.9788 29.9216 13.8023 29.9448 13.6297C29.9783 13.3721 29.9745 13.108 30.0557 12.8568C30.0596 12.8465 30.0622 12.8349 30.0609 12.8246C30.0351 12.5167 30.1073 12.2191 30.1641 11.9215C30.2273 11.593 30.2505 11.2542 30.4014 10.9463C30.4633 10.7982 30.462 10.7982 30.6696 10.6797ZM36.1521 28.4017C36.147 28.3952 36.1444 28.3836 36.1379 28.3823C36.1302 28.3798 36.1199 28.3836 36.1096 28.3849C36.116 28.3952 36.1212 28.4068 36.1289 28.4146C36.1302 28.4171 36.1431 28.4068 36.1521 28.4017ZM36.7557 29.6693C36.7725 29.6615 36.7905 29.6538 36.8073 29.6461C36.8009 29.6384 36.7944 29.6255 36.788 29.6242C36.7712 29.6229 36.7544 29.6268 36.7377 29.6281C36.7441 29.6435 36.7493 29.6564 36.7557 29.6693Z" fill="#44413E"/>
<path d="M22.8528 15.3439C22.885 15.3155 22.916 15.2872 22.9482 15.2589C22.9908 15.2215 23.0346 15.197 23.0888 15.2382L23.0759 15.2305C23.1339 15.2846 23.121 15.3477 23.0965 15.4109C22.9688 15.7239 22.7818 16.0022 22.591 16.2791C22.4942 16.4195 22.3898 16.5548 22.3498 16.7274C22.342 16.7583 22.3279 16.7893 22.3098 16.8163C22.1615 17.0456 22.0828 17.3033 21.9938 17.5583C21.9616 17.6498 21.9332 17.74 21.91 17.834C21.8442 18.1084 21.7514 18.3763 21.6688 18.6456C21.5669 18.9754 21.3928 19.2845 21.3606 19.6375C21.3503 19.7431 21.3 19.8462 21.2639 19.948C21.1697 20.2133 21.0549 20.4736 20.9814 20.7441C20.9285 20.9412 20.9311 21.1524 20.9027 21.3573C20.8744 21.5608 20.8692 21.7708 20.7428 21.9486C20.6835 22.3685 20.4488 22.7382 20.3894 23.1582C20.3121 23.7083 20.2102 24.2545 20.1521 24.8071C20.107 25.2399 20.1122 25.6767 20.0954 26.1121C20.0876 26.2976 20.0554 26.4844 20.076 26.666C20.1134 26.9816 20.0219 27.2947 20.0915 27.609C20.1173 27.7249 20.1031 27.8486 20.1147 27.9671C20.1534 28.3574 20.1689 28.749 20.2256 29.1394C20.2759 29.4923 20.3082 29.8518 20.3649 30.2047C20.4333 30.635 20.5094 31.064 20.6087 31.4878C20.6925 31.8459 20.8215 32.195 20.9169 32.5506C21.1181 33.299 21.3696 34.0307 21.6327 34.7573C21.7797 35.1656 21.9874 35.5534 22.1692 35.9489C22.3459 36.3353 22.52 36.7231 22.7032 37.107C22.8347 37.3814 22.9792 37.6506 23.1197 37.9211C23.1442 37.9688 23.1791 38.0126 23.201 38.0628C23.4576 38.6309 23.8071 39.1462 24.1296 39.6783C24.2766 39.9204 24.4081 40.1717 24.559 40.4113C24.8325 40.8441 25.1149 41.2731 25.3961 41.702C25.4863 41.8386 25.5715 41.9764 25.6101 42.1349C25.556 42.2032 25.5057 42.1619 25.4657 42.1349C25.1665 41.9275 24.9331 41.6531 24.7035 41.3761C24.412 41.0232 24.1257 40.665 23.8188 40.3237C23.4409 39.9024 23.0669 39.476 22.7509 39.0071C22.4775 38.6013 22.2273 38.1801 21.968 37.7653C21.9513 37.7382 21.9409 37.706 21.9319 37.6751C21.8223 37.2693 21.5876 36.9266 21.3748 36.5724C21.3361 36.5067 21.2974 36.4397 21.2677 36.3701C21.0227 35.775 20.6977 35.2198 20.3714 34.6671C20.2772 34.5087 20.1715 34.3554 20.0567 34.2098C19.9329 34.0526 19.7626 33.9483 19.5782 33.8749C19.4041 33.8053 19.2326 33.853 19.1165 34.014C19.0095 34.1621 18.9218 34.327 18.8315 34.4868C18.7889 34.5628 18.7683 34.6504 18.7231 34.7251C18.6135 34.9041 18.6019 35.0999 18.6354 35.2945C18.6922 35.6165 18.6741 35.9412 18.6909 36.2645C18.7141 36.7295 18.6883 37.1985 18.8044 37.6583C18.8418 37.8039 18.8547 37.9636 18.8366 38.1118C18.8057 38.3604 18.914 38.6103 18.8186 38.8564C18.8083 38.8821 18.8199 38.9195 18.8302 38.9491C18.9037 39.1862 18.9811 39.4232 19.0533 39.6615C19.0714 39.7208 19.0456 39.7671 18.9721 39.789C18.8702 39.7259 18.8121 39.619 18.7567 39.5159C18.6974 39.4039 18.6793 39.2686 18.629 39.1578C18.5761 39.0419 18.5026 38.9401 18.482 38.8061C18.4665 38.7134 18.3981 38.6297 18.3685 38.5369C18.2743 38.2355 18.1879 37.9314 18.0989 37.6287C18.1325 37.3814 18.0074 37.165 17.9661 36.9318C17.9416 36.7927 17.9248 36.6522 17.9132 36.5105C17.9003 36.3482 17.9248 36.1795 17.8848 36.0262C17.8449 35.8755 17.832 35.7273 17.8294 35.5753C17.8281 35.3911 17.8204 35.2082 17.7817 35.0239C17.7481 34.8668 17.7649 34.6993 17.7623 34.5357C17.7597 34.3193 17.7959 34.0951 17.7507 33.8877C17.7017 33.6597 17.7069 33.4343 17.694 33.2076C17.6785 32.9254 17.6965 32.6407 17.6746 32.3586C17.6553 32.101 17.6914 31.8369 17.6037 31.5844C17.5895 31.5458 17.596 31.4994 17.596 31.4556C17.5985 31.2276 17.6205 31.0021 17.5895 30.7728C17.5727 30.6517 17.6282 30.5165 17.6669 30.3928C17.7133 30.2434 17.7378 30.0939 17.6991 29.9432C17.6682 29.8196 17.7262 29.701 17.6953 29.5748C17.6643 29.4473 17.7004 29.3172 17.7352 29.1883C17.7585 29.1059 17.7507 29.0157 17.7559 28.9281C17.7726 28.7014 17.7971 28.4747 17.8191 28.2479C17.8668 27.7533 17.9687 27.2663 18.0048 26.7703C18.0228 26.5127 18.086 26.2589 18.1312 26.0039C18.1557 25.8647 18.1879 25.7269 18.2163 25.5878C18.2472 25.4396 18.2846 25.2915 18.3104 25.142C18.3298 25.0351 18.3388 24.9256 18.344 24.8174C18.3556 24.5752 18.4149 24.3459 18.4962 24.1192C18.5503 23.9672 18.5723 23.8049 18.6135 23.6477C18.6535 23.4906 18.6896 23.3308 18.7451 23.1775C18.865 22.84 18.9811 22.5025 19.0546 22.1508C19.0765 22.0452 19.1165 21.9421 19.1513 21.8391C19.2674 21.4874 19.3783 21.1344 19.5021 20.7866C19.5524 20.6436 19.6143 20.5006 19.6982 20.3756C19.862 20.1296 19.9909 19.8694 20.0812 19.5898C20.1289 19.4404 20.2192 19.3232 20.3224 19.2111C20.3662 19.1634 20.4114 19.1145 20.4423 19.0578C20.5055 18.947 20.5648 18.8324 20.6164 18.7164C20.7235 18.4717 20.8653 18.2449 20.9853 18.0079C21.0033 17.9731 21.0485 17.9487 21.0846 17.9255C21.1426 17.8881 21.1749 17.8495 21.1813 17.7722C21.1916 17.6588 21.2613 17.5725 21.3735 17.53C21.3773 17.5622 21.3722 17.5983 21.3877 17.6227C21.3967 17.6395 21.4341 17.6408 21.4573 17.6485C21.4522 17.6317 21.4509 17.6099 21.4393 17.597C21.4173 17.5738 21.3902 17.557 21.3657 17.5377C21.5721 17.2479 21.7527 16.9413 21.9409 16.6398C22.1357 16.3281 22.3291 16.0125 22.5845 15.7407C22.6941 15.6234 22.7676 15.4727 22.8579 15.3362C22.8682 15.3387 22.8773 15.3452 22.8876 15.3465C22.8927 15.3477 22.8992 15.3413 22.9044 15.3374C22.8876 15.3387 22.8708 15.3413 22.8528 15.3439ZM17.832 33.1045C17.8307 33.0955 17.8294 33.0775 17.8281 33.0775C17.8113 33.0775 17.7946 33.08 17.7778 33.0813C17.7791 33.0916 17.7804 33.1097 17.7817 33.1097C17.7997 33.1084 17.8165 33.1058 17.832 33.1045Z" fill="#44413E"/>
<path d="M27.3835 26.5529C27.0675 26.3996 26.887 26.187 26.7696 25.9242C26.6587 25.6769 26.5761 25.4154 26.4626 25.1694C26.3246 24.8731 26.175 24.5832 26.0151 24.2985C25.8758 24.0512 25.7417 23.7961 25.6862 23.5217C25.5985 23.0876 25.4734 22.6625 25.4064 22.2245C25.3587 21.9127 25.2942 21.6036 25.2439 21.2918C25.2271 21.1862 25.2284 21.0767 25.2232 20.9685C25.2168 20.8384 25.2194 20.7108 25.1536 20.5885C25.1188 20.524 25.1059 20.4455 25.093 20.3708C25.0607 20.1878 25.0208 20.0088 24.9537 19.8349C24.9266 19.7653 24.9124 19.6867 24.9124 19.612C24.915 19.1637 24.8389 18.7244 24.7602 18.2851C24.7319 18.128 24.7086 17.9682 24.6945 17.8124C24.6687 17.5238 24.6687 17.2275 24.7873 16.9505C24.8196 16.8758 24.8092 16.8075 24.7835 16.7303C24.7422 16.6079 24.7228 16.4778 24.6919 16.3515C24.6583 16.2137 24.7138 16.0874 24.7835 15.9882C24.8621 15.8762 24.9021 15.7628 24.9163 15.634C24.9511 15.3313 25.0478 15.0427 25.1355 14.7528C25.1536 14.6923 25.1639 14.6279 25.1768 14.5661C25.2039 14.4398 25.2194 14.3084 25.2619 14.186C25.3445 13.9503 25.418 13.7133 25.4773 13.4711C25.5134 13.3229 25.556 13.1774 25.6785 13.0704C25.7004 13.0511 25.7249 13.0189 25.7262 12.9906C25.743 12.7278 25.899 12.5229 26.0293 12.3155C26.0886 12.2215 26.1118 12.1197 26.166 12.0205C26.215 12.0231 26.2653 12.0257 26.3169 12.0296C26.3724 11.9677 26.2885 11.9394 26.2847 11.8917C26.2885 11.8711 26.2872 11.8466 26.2976 11.8299C26.4343 11.6212 26.5581 11.3996 26.7154 11.2064C26.994 10.8676 27.1642 10.4631 27.4144 10.1088C27.5189 9.96197 27.6427 9.828 27.7511 9.69531C27.8284 9.71721 27.8336 9.75586 27.8194 9.80223C27.8039 9.85505 27.8001 9.91817 27.7678 9.95553C27.5447 10.2132 27.4841 10.5661 27.2378 10.8135C27.0959 10.9552 27.0881 11.1703 27.043 11.361C27.0159 11.4743 26.9914 11.5877 26.9669 11.7024C26.9424 11.8183 26.9205 11.9342 26.896 12.0489C26.8857 12.1017 26.8625 12.1558 26.8663 12.2073C26.8779 12.3864 26.8405 12.5539 26.7748 12.7188C26.7554 12.769 26.7386 12.8244 26.7386 12.8772C26.7412 13.3345 26.6329 13.7854 26.6638 14.2453C26.6754 14.4269 26.6355 14.6137 26.6058 14.7966C26.5478 15.1509 26.4743 15.5026 26.4188 15.8568C26.4007 15.9728 26.4149 16.0939 26.4201 16.2137C26.4227 16.2884 26.4381 16.3644 26.4407 16.4391C26.4459 16.5667 26.4871 16.7135 26.4369 16.8153C26.3775 16.9364 26.3827 17.0665 26.3272 17.1811C26.3001 17.2378 26.2834 17.3061 26.2834 17.3692C26.2808 17.8652 26.2357 18.3598 26.2498 18.8571C26.2563 19.0864 26.3066 19.3363 26.1686 19.5553C26.1583 19.5721 26.1531 19.5978 26.1557 19.6184C26.1802 19.8658 26.2099 20.1131 26.2331 20.3604C26.2498 20.5331 26.2756 20.7083 26.2705 20.8809C26.2614 21.1682 26.2834 21.4413 26.4304 21.6976C26.6122 22.0158 26.6522 22.3752 26.7051 22.7295C26.7464 23.0064 26.7502 23.2976 26.8392 23.5591C26.9618 23.9211 27.0366 24.2947 27.1565 24.6554C27.2081 24.8099 27.2442 24.9671 27.2661 25.1294C27.2958 25.3433 27.3448 25.5558 27.4041 25.7645C27.4557 25.9461 27.4673 26.1291 27.466 26.3146C27.4609 26.3841 27.417 26.4537 27.3835 26.5529Z" fill="#44413E"/>
<path d="M41.1496 44.1998C41.1586 44.2732 41.1741 44.3467 41.1767 44.4201C41.1793 44.5064 41.1754 44.594 41.1638 44.679C41.1612 44.7035 41.1251 44.7357 41.0993 44.7409C41.0735 44.746 41.0258 44.7331 41.0129 44.7125C40.9368 44.5811 40.8568 44.451 40.8014 44.3106C40.7021 44.0594 40.5834 43.8224 40.4222 43.6021C40.2958 43.4295 40.1901 43.2388 40.1398 43.0198C40.1037 42.8626 40.0289 42.7145 39.967 42.5638C39.9502 42.5238 39.9192 42.4904 39.9012 42.4504C39.7838 42.1812 39.651 41.9223 39.482 41.6775C39.3415 41.4727 39.2486 41.2356 39.1351 41.0128C39.1003 40.9458 39.0809 40.8672 39.0371 40.8079C38.8385 40.5464 38.6876 40.2566 38.5277 39.9719C38.4374 39.8122 38.3045 39.6782 38.1936 39.53C38.0634 39.3561 37.8918 39.217 37.8028 39.0109C37.7796 38.9568 37.7164 38.9156 37.6636 38.8769C37.4688 38.7365 37.3166 38.5613 37.1967 38.3526C37.0935 38.1735 36.9761 38.0022 36.784 37.8992C36.7375 37.8734 36.6834 37.8373 36.6615 37.7935C36.5235 37.5153 36.2242 37.4225 36.0205 37.2254C35.8257 37.0361 35.5897 36.8905 35.4182 36.6857C35.2015 36.4267 34.9913 36.1652 34.7308 35.9462C34.6998 35.9205 34.6934 35.8664 34.665 35.838C34.5451 35.7182 34.4677 35.5623 34.3116 35.4657C34.1981 35.3949 34.1078 35.2686 34.0395 35.1488C33.9518 34.9942 33.8447 34.8615 33.7171 34.7417C33.6539 34.6825 33.5752 34.6335 33.5275 34.564C33.3714 34.3385 33.1896 34.1401 32.9768 33.9675C32.9291 33.9289 32.8942 33.8722 32.8543 33.8232C32.7627 33.7163 32.666 33.6133 32.5808 33.5012C32.2687 33.0851 31.8947 32.7115 31.6729 32.231C31.6497 32.1821 31.6265 32.1318 31.6097 32.0803C31.5787 31.9837 31.6368 31.909 31.6935 31.8484C31.7541 31.7853 31.8341 31.8123 31.9063 31.8484C32.252 32.021 32.5305 32.28 32.8091 32.5389C32.9445 32.6639 33.0632 32.8068 33.196 32.937C33.2902 33.0284 33.3611 33.1315 33.3895 33.2603C33.5391 33.2487 33.6216 33.3659 33.7197 33.4445C34.0163 33.6803 34.3052 33.9263 34.5979 34.1659C34.6379 34.1994 34.6831 34.2381 34.7321 34.2484C34.9216 34.2934 35.0571 34.421 35.2054 34.5305C35.3537 34.64 35.4969 34.7559 35.6465 34.8628C35.8141 34.9826 35.965 35.1179 36.1056 35.2686C36.2088 35.3781 36.3339 35.4709 36.459 35.5559C36.7492 35.753 36.9903 35.9952 37.2044 36.2734C37.4095 36.5388 37.6481 36.7784 37.8699 37.0309C37.9267 37.0953 37.9847 37.1623 38.0272 37.237C38.0801 37.3311 38.1149 37.4315 38.2233 37.4869C38.2658 37.5088 38.2942 37.5694 38.3136 37.6183C38.3961 37.8232 38.5444 37.9803 38.6863 38.1439C38.8281 38.3075 38.9571 38.4789 39.0629 38.6734C39.2073 38.9413 39.3866 39.1899 39.5517 39.4463C39.5749 39.4824 39.6136 39.5107 39.6316 39.5494C39.7425 39.7838 39.838 40.0273 39.9618 40.254C40.0921 40.4923 40.1617 40.7564 40.3242 40.9819C40.4106 41.1004 40.4493 41.2562 40.4996 41.3979C40.5989 41.6839 40.6802 41.9751 40.8169 42.2482C40.8594 42.3332 40.8801 42.4337 40.8968 42.529C40.9884 43.0417 41.0748 43.5557 41.1625 44.0697C41.1702 44.1122 41.1677 44.156 41.1702 44.1985C41.1664 44.1972 41.1573 44.1985 41.1496 44.1998Z" fill="#44413E"/>
<path d="M7.63428 33.4846C7.67168 33.1728 7.6317 32.9074 7.55819 32.6485C7.52207 32.5197 7.54142 32.3922 7.56334 32.2711C7.59559 32.0868 7.60075 31.9052 7.58914 31.721C7.57108 31.4402 7.55303 31.1593 7.544 30.8785C7.54013 30.7703 7.56205 30.6621 7.57366 30.5539C7.62138 30.1223 7.68071 29.6921 7.7813 29.2682C7.80839 29.1523 7.83289 29.0338 7.86771 28.9204C8.02377 28.4232 8.1824 27.9285 8.34103 27.4325C8.43389 27.1427 8.53965 26.858 8.7086 26.6016C8.77437 26.5024 8.81693 26.3929 8.85304 26.277C8.90076 26.1237 8.99749 25.9859 9.06455 25.8377C9.2464 25.4435 9.42309 25.0467 9.66942 24.686C9.71069 24.6255 9.72875 24.5469 9.74294 24.4735C9.78292 24.2648 9.87706 24.078 9.99701 23.9131C10.2046 23.6297 10.3891 23.3399 10.4948 23.0023C10.5168 22.9315 10.5542 22.8594 10.6019 22.8014C10.776 22.5927 10.9514 22.3866 11.1358 22.1869C11.3563 21.9486 11.5808 21.7167 11.7729 21.4513C11.9509 21.2053 12.1676 20.9863 12.3675 20.757C12.4229 20.6939 12.4913 20.6694 12.5725 20.6964C12.6396 20.7196 12.7105 20.8304 12.7002 20.9064C12.6938 20.9592 12.6757 21.0133 12.6525 21.061C12.5364 21.2942 12.3984 21.517 12.3056 21.7592C12.1959 22.0413 11.9831 22.2771 11.9419 22.5914C11.9303 22.6842 11.8619 22.7679 11.8194 22.8568C11.5924 23.3386 11.3925 23.8332 11.1435 24.3047C11.1229 24.3434 11.1087 24.3859 11.0816 24.4194C10.8611 24.6964 10.7489 25.03 10.6019 25.3443C10.5464 25.4616 10.4781 25.5723 10.4187 25.6883C10.3955 25.7347 10.38 25.7849 10.3633 25.8338C10.3388 25.906 10.3297 25.9859 10.2923 26.049C10.2279 26.1546 10.1956 26.2641 10.1853 26.3852C10.1776 26.4702 10.1737 26.5707 10.1286 26.6364C9.96347 26.8709 9.95058 27.1633 9.81387 27.4068C9.76744 27.4905 9.7468 27.591 9.72101 27.685C9.65266 27.9259 9.57785 28.1655 9.46049 28.3884C9.35345 28.5919 9.27477 28.8045 9.23479 29.0325C9.17418 29.3752 9.00523 29.683 8.88787 30.0077C8.82467 30.1829 8.7705 30.3581 8.74987 30.541C8.71892 30.8154 8.62219 31.0589 8.50354 31.3101C8.32298 31.6914 8.15919 32.0843 8.06504 32.5004C8.02377 32.6794 7.9567 32.8533 7.92704 33.0337C7.89609 33.2166 7.79291 33.3377 7.63428 33.4846Z" fill="#44413E"/>
<path d="M58.1402 34.5237C58.0499 34.427 57.9932 34.3897 57.9674 34.3369C57.7598 33.9079 57.4786 33.5111 57.3754 33.0345C57.3664 32.992 57.3522 32.9482 57.329 32.9121C57.1149 32.5797 57.0259 32.1984 56.8892 31.8339C56.7977 31.5891 56.688 31.3534 56.541 31.1356C56.4017 30.9295 56.2985 30.7002 56.1799 30.4825C56.0458 30.2378 55.9503 29.9647 55.753 29.7547C55.6705 29.6684 55.6331 29.5602 55.6408 29.4378C55.5092 29.4094 55.4422 29.2999 55.3829 29.2008C55.2668 29.0062 55.1649 28.8014 55.0669 28.5966C54.9998 28.4587 54.9482 28.3132 54.8089 28.2269C54.6967 27.9744 54.4826 27.7966 54.3356 27.5699C54.0622 27.1499 53.7243 26.7815 53.389 26.4118C53.2922 26.3061 53.2058 26.1992 53.1439 26.0691C53.1027 25.9815 53.0446 25.8991 52.9801 25.8282C52.7841 25.6105 52.5765 25.4057 52.4475 25.1339C52.3946 25.0218 52.2798 24.9368 52.1844 24.8492C51.8994 24.5902 51.6659 24.2914 51.4544 23.9719C51.4183 23.9178 51.377 23.8663 51.3306 23.8199C51.1514 23.6434 50.9863 23.4566 50.9166 23.1977C50.9669 23.1371 51.0404 23.15 51.1114 23.1912C51.27 23.2866 51.4402 23.369 51.5782 23.4901C51.6956 23.5919 51.8233 23.6666 51.9548 23.7413C52.1444 23.8495 52.3405 23.9487 52.4668 24.1381C52.4784 24.1561 52.4952 24.1741 52.5133 24.1832C52.8215 24.3184 53.0021 24.6147 53.2768 24.7925C53.34 24.8337 53.3941 24.8904 53.4457 24.9471C53.585 25.0978 53.7398 25.2318 53.8894 25.3722C54.2208 25.6839 54.5652 25.9879 54.7973 26.3899C54.8076 26.4079 54.8218 26.4285 54.8386 26.4388C55.0772 26.5792 55.1894 26.8188 55.3184 27.0443C55.3958 27.1795 55.5067 27.2839 55.6227 27.3818C55.7246 27.4681 55.7878 27.5802 55.8691 27.6819C56.136 28.0143 56.3308 28.393 56.5836 28.7331C56.7577 28.9689 56.9176 29.2149 57.0285 29.488C57.0491 29.5383 57.0633 29.5937 57.093 29.6375C57.2903 29.9299 57.3432 30.2854 57.5121 30.5894C57.5379 30.6345 57.5341 30.6951 57.5495 30.7466C57.6102 30.9437 57.6811 31.1369 57.7327 31.3366C57.7972 31.5891 57.8462 31.8467 57.9016 32.1018C57.939 32.2719 57.9584 32.4471 58.0177 32.6094C58.099 32.8309 58.1131 33.0564 58.1106 33.2857C58.1093 33.3952 58.1196 33.4982 58.148 33.6064C58.215 33.8847 58.1828 34.1668 58.1402 34.5237ZM56.906 29.7367C56.9021 29.7289 56.8995 29.7225 56.8957 29.7147C56.8905 29.7212 56.8828 29.7276 56.8828 29.7341C56.8828 29.7418 56.8892 29.7495 56.8918 29.7573C56.8957 29.7495 56.9008 29.7431 56.906 29.7367Z" fill="#44413E"/>
<path d="M44.766 12.7844C44.8343 12.7728 44.9066 12.7445 44.9762 12.7509C45.0729 12.76 45.1671 12.7935 45.2625 12.8179C45.3579 12.8424 45.4521 12.8862 45.5475 12.8875C45.8209 12.8914 46.0583 13.0047 46.2865 13.1258C46.7869 13.3912 47.2899 13.6501 47.8161 13.8627C47.9154 13.9026 48.0044 13.9709 48.0934 14.0327C48.3268 14.1937 48.5564 14.3586 48.7873 14.5235C48.8143 14.5428 48.8427 14.5635 48.8582 14.5905C49.0078 14.8469 49.2696 14.9731 49.5005 15.1316C49.6539 15.2372 49.7855 15.3609 49.9106 15.4974C50.0486 15.6494 50.1763 15.813 50.3607 15.9199C50.4226 15.956 50.4613 16.0294 50.5103 16.0874C50.5941 16.1879 50.6805 16.2858 50.7605 16.3889C50.8663 16.5241 51.0249 16.6027 51.1023 16.7766C51.1655 16.9183 51.3035 17.0252 51.395 17.1618C51.4918 17.3048 51.6156 17.4297 51.7342 17.5573C51.889 17.7247 52.0528 17.8832 52.2063 18.0507C52.3004 18.1537 52.3907 18.2555 52.4229 18.4049C52.4423 18.4938 52.5287 18.5659 52.5751 18.6523C52.7402 18.9563 52.9014 19.2629 53.0652 19.5669C53.091 19.6145 53.1194 19.6622 53.1568 19.7009C53.3915 19.9392 53.5256 20.238 53.6649 20.5343C53.7294 20.6722 53.79 20.8113 53.8648 20.9427C54.0828 21.3201 54.2221 21.7285 54.3368 22.1459C54.3665 22.2528 54.4181 22.3726 54.3227 22.5092C54.2827 22.4757 54.2478 22.4551 54.2259 22.4254C54.0673 22.2167 53.8996 22.0158 53.759 21.7955C53.6185 21.5765 53.4908 21.3459 53.385 21.1089C53.2896 20.8976 53.1619 20.7134 53.0265 20.5292C52.9375 20.4068 52.8627 20.2728 52.7879 20.1414C52.6744 19.9443 52.5222 19.7782 52.3713 19.6107C52.343 19.5785 52.2978 19.5617 52.2682 19.5295C51.8129 19.0155 51.2738 18.5853 50.816 18.0751C50.7811 18.0365 50.7321 18.012 50.6896 17.9798C50.647 17.9476 50.5928 17.9218 50.5645 17.8806C50.402 17.641 50.1621 17.4941 49.9377 17.3267C49.7649 17.1979 49.5766 17.0793 49.4605 16.8861C49.4386 16.8488 49.4102 16.8114 49.3754 16.7882C48.942 16.5074 48.6531 16.0642 48.225 15.7782C48.185 15.7512 48.1579 15.6984 48.136 15.652C48.1179 15.6134 48.1153 15.567 48.056 15.5734C47.9593 15.5837 47.8999 15.509 47.8226 15.4742C47.4692 15.3132 47.2577 15.004 47.0281 14.718C46.9095 14.5699 46.7766 14.4488 46.6167 14.3535C46.4 14.2247 46.2066 14.0714 46.0312 13.8871C45.9125 13.7622 45.7642 13.6643 45.6223 13.5625C45.4805 13.4607 45.3347 13.3654 45.1851 13.2752C45.0136 13.1722 44.8937 13.0176 44.766 12.8695C44.7569 12.8579 44.766 12.8295 44.766 12.7844ZM52.8872 19.8645C52.8588 19.8439 52.8292 19.8181 52.8266 19.8207C52.8047 19.8413 52.7879 19.867 52.7699 19.8915C52.7879 19.9031 52.8111 19.9263 52.8227 19.9224C52.8472 19.9108 52.8653 19.8864 52.8872 19.8645Z" fill="#44413E"/>
<path d="M51.5446 40.8458C51.4556 40.65 51.4698 40.4426 51.4531 40.2442C51.417 39.8101 51.4041 39.376 51.3164 38.947C51.2867 38.7989 51.2906 38.643 51.2777 38.4923C51.2661 38.3441 51.2454 38.1998 51.1668 38.0646C51.1242 37.9924 51.1165 37.8997 51.0958 37.8159C51.061 37.6691 51.0288 37.5197 50.9939 37.3728C50.981 37.32 50.9591 37.2697 50.954 37.2156C50.9307 36.9863 50.8817 36.7738 50.7553 36.569C50.6754 36.4388 50.6741 36.2585 50.6367 36.1013C50.6096 35.9854 50.5851 35.8695 50.5503 35.7548C50.4497 35.4237 50.2691 35.121 50.2021 34.7783C50.0408 34.5684 50.0576 34.2849 49.9222 34.0698C49.8035 33.8817 49.7403 33.6756 49.6655 33.4734C49.5649 33.199 49.4772 32.9194 49.3921 32.6399C49.3754 32.5832 49.3405 32.5523 49.3096 32.5111C49.2477 32.4273 49.2077 32.3269 49.1587 32.2341C49.2387 32.1117 49.0955 32.0216 49.111 31.8992C49.1252 31.7845 49.0852 31.6634 49.0684 31.5462C49.062 31.5037 49.0607 31.4586 49.0452 31.42C48.8982 31.0554 48.7976 30.6792 48.755 30.2876C48.7486 30.2271 48.7137 30.1691 48.6841 30.0892C48.7499 30.0725 48.7989 30.0493 48.8466 30.0532C48.8866 30.0557 48.9291 30.0828 48.9627 30.1086C49.0491 30.1743 49.1535 30.2309 49.2129 30.3185C49.3857 30.5736 49.6849 30.7114 49.8319 30.982C50.0034 31.2976 50.2059 31.5913 50.3955 31.8927C50.5142 32.0821 50.5658 32.314 50.647 32.5265C50.8314 33.0135 51.0133 33.5004 51.2016 33.9861C51.288 34.2089 51.3886 34.4228 51.3899 34.6714C51.3899 34.7642 51.444 34.8582 51.4763 34.9497C51.5201 35.0733 51.5846 35.1918 51.6091 35.3181C51.6942 35.7754 51.7665 36.2353 51.8438 36.6939C51.8748 36.8768 51.9045 37.0585 51.9328 37.2414C51.9651 37.4436 52.0296 37.6459 51.9225 37.8482C51.9122 37.8688 51.9303 37.9048 51.9354 37.9345C51.9444 37.986 51.9715 38.0414 51.9599 38.0865C51.9199 38.2269 51.9354 38.366 51.9432 38.5077C51.9599 38.7885 52.0102 39.0707 51.9225 39.3489C51.9573 39.8037 51.7445 40.221 51.72 40.6668C51.7136 40.7569 51.662 40.8278 51.5446 40.8458ZM51.5111 38.558C51.4969 38.5708 51.4724 38.5811 51.4698 38.5953C51.4673 38.6108 51.4853 38.6288 51.493 38.6456C51.5124 38.6288 51.533 38.6121 51.5524 38.5953C51.5395 38.5837 51.5253 38.5708 51.5111 38.558Z" fill="#44413E"/>
</svg>
